<?xml version="1.0" encoding="UTF-8" standalone="no"?>
<svg
   xmlns:ns2="http://www.iki.fi/pav/software/textext/"
   xmlns:dc="http://purl.org/dc/elements/1.1/"
   xmlns:cc="http://creativecommons.org/ns#"
   xmlns:rdf="http://www.w3.org/1999/02/22-rdf-syntax-ns#"
   xmlns:svg="http://www.w3.org/2000/svg"
   xmlns="http://www.w3.org/2000/svg"
   xmlns:sodipodi="http://sodipodi.sourceforge.net/DTD/sodipodi-0.dtd"
   xmlns:inkscape="http://www.inkscape.org/namespaces/inkscape"
   width="80mm"
   height="100mm"
   viewBox="0 0 80 100"
   version="1.1"
   id="svg8"
   sodipodi:docname="3.3.3.svg"
   inkscape:version="1.0.2 (e86c870879, 2021-01-15)">
  <defs
     id="defs2">
    <g
       id="id-fc48e0fd-4cc7-45e6-9e44-a057cf7f2263-5">
      <symbol
         overflow="visible"
         id="id-1b4d35ad-46a6-410f-88f7-7aebb74fe593-3">
        <path
           style="stroke:none"
           d=""
           id="id-5bc47018-3f7d-4009-a0c5-940be670db0a-5" />
      </symbol>
      <symbol
         overflow="visible"
         id="id-0608f3b1-5236-4527-bddb-17fb628a6175-6">
        <path
           style="stroke:none"
           d="m 2.046875,-3.984375 h 0.9375 c 0.203125,0 0.3125,0 0.3125,-0.203125 0,-0.109375 -0.109375,-0.109375 -0.28125,-0.109375 h -0.875 C 2.5,-5.71875 2.546875,-5.90625 2.546875,-5.96875 c 0,-0.171875 -0.125,-0.265625 -0.296875,-0.265625 -0.03125,0 -0.3125,0 -0.390625,0.359375 L 1.46875,-4.296875 h -0.9375 c -0.203125,0 -0.296875,0 -0.296875,0.1875 0,0.125 0.078125,0.125 0.28125,0.125 h 0.875 C 0.671875,-1.15625 0.625,-0.984375 0.625,-0.8125 0.625,-0.265625 1,0.109375 1.546875,0.109375 2.5625,0.109375 3.125,-1.34375 3.125,-1.421875 3.125,-1.53125 3.046875,-1.53125 3.015625,-1.53125 2.921875,-1.53125 2.90625,-1.5 2.859375,-1.390625 2.4375,-0.34375 1.90625,-0.109375 1.5625,-0.109375 c -0.203125,0 -0.3125,-0.125 -0.3125,-0.453125 0,-0.25 0.03125,-0.3125 0.0625,-0.484375 z m 0,0"
           id="id-8fa4b55a-e666-47fb-abf1-9da7696546c1-2" />
      </symbol>
      <symbol
         overflow="visible"
         id="id-8243332c-daf8-4c17-9bad-23f73093b6f1-9">
        <path
           style="stroke:none"
           d=""
           id="id-b7ea267e-8611-4651-a84f-412075c88e55-1" />
      </symbol>
      <symbol
         overflow="visible"
         id="id-6afb1271-2ae1-41f2-b966-5a22e0f0ab72-2">
        <path
           style="stroke:none"
           d="m 2.328125,-4.4375 c 0,-0.1875 0,-0.1875 -0.203125,-0.1875 -0.453125,0.4375 -1.078125,0.4375 -1.359375,0.4375 v 0.25 c 0.15625,0 0.625,0 1,-0.1875 v 3.546875 c 0,0.234375 0,0.328125 -0.6875,0.328125 H 0.8125 V 0 c 0.125,0 0.984375,-0.03125 1.234375,-0.03125 0.21875,0 1.09375,0.03125 1.25,0.03125 V -0.25 H 3.03125 c -0.703125,0 -0.703125,-0.09375 -0.703125,-0.328125 z m 0,0"
           id="id-b4eeb28c-d980-4b54-a7d2-c0adc71b53b7-7" />
      </symbol>
    </g>
    <g
       id="id-fc48e0fd-4cc7-45e6-9e44-a057cf7f2263-8">
      <symbol
         overflow="visible"
         id="id-1b4d35ad-46a6-410f-88f7-7aebb74fe593-7">
        <path
           style="stroke:none"
           d=""
           id="id-5bc47018-3f7d-4009-a0c5-940be670db0a-9" />
      </symbol>
      <symbol
         overflow="visible"
         id="id-0608f3b1-5236-4527-bddb-17fb628a6175-2">
        <path
           style="stroke:none"
           d="m 2.046875,-3.984375 h 0.9375 c 0.203125,0 0.3125,0 0.3125,-0.203125 0,-0.109375 -0.109375,-0.109375 -0.28125,-0.109375 h -0.875 C 2.5,-5.71875 2.546875,-5.90625 2.546875,-5.96875 c 0,-0.171875 -0.125,-0.265625 -0.296875,-0.265625 -0.03125,0 -0.3125,0 -0.390625,0.359375 L 1.46875,-4.296875 h -0.9375 c -0.203125,0 -0.296875,0 -0.296875,0.1875 0,0.125 0.078125,0.125 0.28125,0.125 h 0.875 C 0.671875,-1.15625 0.625,-0.984375 0.625,-0.8125 0.625,-0.265625 1,0.109375 1.546875,0.109375 2.5625,0.109375 3.125,-1.34375 3.125,-1.421875 3.125,-1.53125 3.046875,-1.53125 3.015625,-1.53125 2.921875,-1.53125 2.90625,-1.5 2.859375,-1.390625 2.4375,-0.34375 1.90625,-0.109375 1.5625,-0.109375 c -0.203125,0 -0.3125,-0.125 -0.3125,-0.453125 0,-0.25 0.03125,-0.3125 0.0625,-0.484375 z m 0,0"
           id="id-8fa4b55a-e666-47fb-abf1-9da7696546c1-0" />
      </symbol>
      <symbol
         overflow="visible"
         id="id-8243332c-daf8-4c17-9bad-23f73093b6f1-2">
        <path
           style="stroke:none"
           d=""
           id="id-b7ea267e-8611-4651-a84f-412075c88e55-3" />
      </symbol>
      <symbol
         overflow="visible"
         id="id-6afb1271-2ae1-41f2-b966-5a22e0f0ab72-7">
        <path
           style="stroke:none"
           d="m 2.328125,-4.4375 c 0,-0.1875 0,-0.1875 -0.203125,-0.1875 -0.453125,0.4375 -1.078125,0.4375 -1.359375,0.4375 v 0.25 c 0.15625,0 0.625,0 1,-0.1875 v 3.546875 c 0,0.234375 0,0.328125 -0.6875,0.328125 H 0.8125 V 0 c 0.125,0 0.984375,-0.03125 1.234375,-0.03125 0.21875,0 1.09375,0.03125 1.25,0.03125 V -0.25 H 3.03125 c -0.703125,0 -0.703125,-0.09375 -0.703125,-0.328125 z m 0,0"
           id="id-b4eeb28c-d980-4b54-a7d2-c0adc71b53b7-5" />
      </symbol>
    </g>
    <g
       id="id-c425991d-1e24-4901-94b4-946a50113519-1">
      <symbol
         overflow="visible"
         id="id-46e1bc14-be24-4adc-9473-c2876857f7d3-9">
        <path
           style="stroke:none"
           d=""
           id="id-160cb615-ed33-4c4a-9d5c-bb4b3d1aee91-4" />
      </symbol>
      <symbol
         overflow="visible"
         id="id-07bcc403-167b-45c8-badf-73b662f6dd97-7">
        <path
           style="stroke:none"
           d="m 4.5,-4.296875 c 0,-0.046875 -0.03125,-0.09375 -0.09375,-0.09375 -0.109375,0 -0.515625,0.390625 -0.671875,0.6875 C 3.515625,-4.25 3.125,-4.40625 2.796875,-4.40625 c -1.171875,0 -2.390625,1.46875 -2.390625,2.921875 0,0.96875 0.578125,1.59375 1.3125,1.59375 0.421875,0 0.8125,-0.234375 1.171875,-0.59375 -0.09375,0.34375 -0.421875,1.6875 -0.453125,1.78125 -0.078125,0.28125 -0.15625,0.3125 -0.71875,0.328125 -0.125,0 -0.21875,0 -0.21875,0.203125 0,0 0,0.109375 0.125,0.109375 0.3125,0 0.671875,-0.03125 1,-0.03125 0.328125,0 0.6875,0.03125 1.03125,0.03125 0.046875,0 0.171875,0 0.171875,-0.203125 C 3.828125,1.625 3.734375,1.625 3.5625,1.625 3.09375,1.625 3.09375,1.5625 3.09375,1.46875 3.09375,1.390625 3.109375,1.328125 3.125,1.25 Z m -2.75,4.1875 c -0.609375,0 -0.640625,-0.765625 -0.640625,-0.9375 0,-0.484375 0.28125,-1.5625 0.453125,-1.984375 0.3125,-0.734375 0.828125,-1.15625 1.234375,-1.15625 0.65625,0 0.796875,0.8125 0.796875,0.875 0,0.0625 -0.546875,2.25 -0.578125,2.28125 C 2.859375,-0.75 2.296875,-0.109375 1.75,-0.109375 Z m 0,0"
           id="id-bf8639ff-636c-49ee-b2d6-09002a3ada02-8" />
      </symbol>
    </g>
  </defs>
  <sodipodi:namedview
     id="base"
     pagecolor="#ffffff"
     bordercolor="#666666"
     borderopacity="1.0"
     inkscape:pageopacity="0.0"
     inkscape:pageshadow="2"
     inkscape:zoom="2.1023849"
     inkscape:cx="167.30149"
     inkscape:cy="245.28887"
     inkscape:document-units="mm"
     inkscape:current-layer="layer1"
     inkscape:document-rotation="0"
     showgrid="false"
     inkscape:window-width="1506"
     inkscape:window-height="1005"
     inkscape:window-x="197"
     inkscape:window-y="0"
     inkscape:window-maximized="0" />
  <metadata
     id="metadata5">
    <rdf:RDF>
      <cc:Work
         rdf:about="">
        <dc:format>image/svg+xml</dc:format>
        <dc:type
           rdf:resource="http://purl.org/dc/dcmitype/StillImage" />
        <dc:title />
      </cc:Work>
    </rdf:RDF>
  </metadata>
  <g
     inkscape:label="Layer 1"
     inkscape:groupmode="layer"
     id="layer1">
    <path
       sodipodi:type="star"
       style="fill:#000013;fill-opacity:0.31133404;stroke:#000013;stroke-width:0.473949;stroke-linecap:round;stroke-miterlimit:4;stroke-dasharray:none;stroke-dashoffset:0;stroke-opacity:1"
       id="path3425-7"
       sodipodi:sides="3"
       sodipodi:cx="40.660385"
       sodipodi:cy="19.459877"
       sodipodi:r1="19.566975"
       sodipodi:r2="9.7834873"
       sodipodi:arg1="1.5707963"
       sodipodi:arg2="2.6179939"
       inkscape:flatsided="true"
       inkscape:rounded="0"
       inkscape:randomized="0"
       transform="matrix(0,-1.4792176,0.84273124,0,7.3991831,116.65713)"
       d="M 40.660386,39.026852 23.714888,9.6763901 l 33.890994,-9e-7 z"
       inkscape:transform-center-x="-4.1224232" />
    <path
       sodipodi:type="star"
       style="fill:#fbc55d;fill-opacity:0.311334;stroke:#fbc55d;stroke-width:0.473949;stroke-linecap:round;stroke-miterlimit:4;stroke-dasharray:none;stroke-dashoffset:0;stroke-opacity:1"
       id="path3425-6"
       sodipodi:sides="3"
       sodipodi:cx="40.660385"
       sodipodi:cy="19.459877"
       sodipodi:r1="19.566975"
       sodipodi:r2="9.7834873"
       sodipodi:arg1="1.5707963"
       sodipodi:arg2="2.6179939"
       inkscape:flatsided="true"
       inkscape:rounded="0"
       inkscape:randomized="0"
       inkscape:transform-center-y="3.6266171e-06"
       transform="matrix(0,1.4792176,-0.84273124,0,73.713315,-3.7000646)"
       inkscape:transform-center-x="4.1224246"
       d="M 40.660386,39.026852 23.714888,9.6763901 l 33.890994,-9e-7 z" />
    <path
       sodipodi:type="star"
       style="fill:#00ff00;fill-opacity:0.511946;stroke:#00ff00;stroke-width:0.473949;stroke-linecap:round;stroke-miterlimit:4;stroke-dasharray:none;stroke-dashoffset:0;stroke-opacity:1"
       id="path3425-3"
       sodipodi:sides="3"
       sodipodi:cx="40.660385"
       sodipodi:cy="19.459877"
       sodipodi:r1="19.566975"
       sodipodi:r2="9.7834873"
       sodipodi:arg1="1.5707963"
       sodipodi:arg2="2.6179939"
       inkscape:flatsided="true"
       inkscape:rounded="0"
       inkscape:randomized="0"
       inkscape:transform-center-y="-4.1224253"
       transform="matrix(1.4792176,0,0,-0.84273124,-19.597344,89.769089)"
       inkscape:transform-center-x="-3.5934047e-06"
       d="M 40.660386,39.026852 23.714888,9.6763901 l 33.890994,-9e-7 z" />
    <path
       sodipodi:type="star"
       style="fill:#00e6ff;fill-opacity:0.311334;stroke:#00e6ff;stroke-width:0.473949;stroke-linecap:round;stroke-miterlimit:4;stroke-dasharray:none;stroke-dashoffset:0;stroke-opacity:1"
       id="path3425"
       sodipodi:sides="3"
       sodipodi:cx="40.660385"
       sodipodi:cy="19.459877"
       sodipodi:r1="19.566975"
       sodipodi:r2="9.7834873"
       sodipodi:arg1="1.5707963"
       sodipodi:arg2="2.6179939"
       inkscape:flatsided="true"
       inkscape:rounded="0"
       inkscape:randomized="0"
       d="M 40.660386,39.026852 23.714888,9.6763901 l 33.890994,-9e-7 z"
       inkscape:transform-center-y="4.1224249"
       transform="matrix(1.4792176,0,0,0.84273124,-19.597344,23.245379)"
       inkscape:transform-center-x="-3.5934047e-06" />
    <rect
       style="fill:none;fill-opacity:0.477057;stroke:#000000;stroke-width:0.529167;stroke-linecap:round;stroke-miterlimit:4;stroke-dasharray:none;stroke-opacity:1"
       id="rect2993"
       width="50"
       height="50"
       x="15.553779"
       y="31.445492" />
    <g
       id="g2991"
       transform="matrix(1.4473159,0,0,1.4473159,-18.241836,-0.4833572)"
       style="stroke-width:0.690934">
      <path
         style="fill:none;stroke:#000000;stroke-width:0.548429;stroke-linecap:round;stroke-linejoin:miter;stroke-miterlimit:4;stroke-dasharray:none;stroke-opacity:1"
         d="M 16.75463,39.334087 H 64.493167"
         id="path835" />
      <path
         style="fill:none;stroke:#000000;stroke-width:0.548429;stroke-linecap:round;stroke-linejoin:miter;stroke-miterlimit:4;stroke-dasharray:none;stroke-opacity:1"
         d="M 40.623898,63.203356 V 15.464818"
         id="path835-3" />
    </g>
    <g
       transform="matrix(0.352778,0,0,0.352778,73.866807,58.240632)"
       ns2:version="1.1.0"
       ns2:texconverter="pdflatex"
       ns2:pdfconverter="inkscape"
       ns2:text="$t_1$"
       ns2:preamble="/home/danielsank/.config/inkscape/extensions/textext/default_packages.tex"
       ns2:scale="1.0"
       ns2:alignment="middle center"
       ns2:jacobian_sqrt="0.352778"
       id="g2788">
      <defs
         id="id-a9351727-5516-47ce-9d4f-a732c1eba722">
        <g
           id="id-fc48e0fd-4cc7-45e6-9e44-a057cf7f2263">
          <symbol
             overflow="visible"
             id="id-1b4d35ad-46a6-410f-88f7-7aebb74fe593">
            <path
               style="stroke:none"
               d=""
               id="id-5bc47018-3f7d-4009-a0c5-940be670db0a" />
          </symbol>
          <symbol
             overflow="visible"
             id="id-0608f3b1-5236-4527-bddb-17fb628a6175">
            <path
               style="stroke:none"
               d="m 2.046875,-3.984375 h 0.9375 c 0.203125,0 0.3125,0 0.3125,-0.203125 0,-0.109375 -0.109375,-0.109375 -0.28125,-0.109375 h -0.875 C 2.5,-5.71875 2.546875,-5.90625 2.546875,-5.96875 c 0,-0.171875 -0.125,-0.265625 -0.296875,-0.265625 -0.03125,0 -0.3125,0 -0.390625,0.359375 L 1.46875,-4.296875 h -0.9375 c -0.203125,0 -0.296875,0 -0.296875,0.1875 0,0.125 0.078125,0.125 0.28125,0.125 h 0.875 C 0.671875,-1.15625 0.625,-0.984375 0.625,-0.8125 0.625,-0.265625 1,0.109375 1.546875,0.109375 2.5625,0.109375 3.125,-1.34375 3.125,-1.421875 3.125,-1.53125 3.046875,-1.53125 3.015625,-1.53125 2.921875,-1.53125 2.90625,-1.5 2.859375,-1.390625 2.4375,-0.34375 1.90625,-0.109375 1.5625,-0.109375 c -0.203125,0 -0.3125,-0.125 -0.3125,-0.453125 0,-0.25 0.03125,-0.3125 0.0625,-0.484375 z m 0,0"
               id="id-8fa4b55a-e666-47fb-abf1-9da7696546c1" />
          </symbol>
          <symbol
             overflow="visible"
             id="id-8243332c-daf8-4c17-9bad-23f73093b6f1">
            <path
               style="stroke:none"
               d=""
               id="id-b7ea267e-8611-4651-a84f-412075c88e55" />
          </symbol>
          <symbol
             overflow="visible"
             id="id-6afb1271-2ae1-41f2-b966-5a22e0f0ab72">
            <path
               style="stroke:none"
               d="m 2.328125,-4.4375 c 0,-0.1875 0,-0.1875 -0.203125,-0.1875 -0.453125,0.4375 -1.078125,0.4375 -1.359375,0.4375 v 0.25 c 0.15625,0 0.625,0 1,-0.1875 v 3.546875 c 0,0.234375 0,0.328125 -0.6875,0.328125 H 0.8125 V 0 c 0.125,0 0.984375,-0.03125 1.234375,-0.03125 0.21875,0 1.09375,0.03125 1.25,0.03125 V -0.25 H 3.03125 c -0.703125,0 -0.703125,-0.09375 -0.703125,-0.328125 z m 0,0"
               id="id-b4eeb28c-d980-4b54-a7d2-c0adc71b53b7" />
          </symbol>
        </g>
      </defs>
      <g
         id="id-4f179c8e-ee78-40c2-98d3-c398afa012aa"
         transform="translate(-148.946,-128.531)">
        <g
           style="fill:#000000;fill-opacity:1"
           id="id-639c344f-1c87-4866-aa4a-b4fd00c3964f">
          <g
             transform="translate(148.712,134.765)"
             id="g2780">
            <path
               style="stroke:none"
               d="m 2.046875,-3.984375 h 0.9375 c 0.203125,0 0.3125,0 0.3125,-0.203125 0,-0.109375 -0.109375,-0.109375 -0.28125,-0.109375 h -0.875 C 2.5,-5.71875 2.546875,-5.90625 2.546875,-5.96875 c 0,-0.171875 -0.125,-0.265625 -0.296875,-0.265625 -0.03125,0 -0.3125,0 -0.390625,0.359375 L 1.46875,-4.296875 h -0.9375 c -0.203125,0 -0.296875,0 -0.296875,0.1875 0,0.125 0.078125,0.125 0.28125,0.125 h 0.875 C 0.671875,-1.15625 0.625,-0.984375 0.625,-0.8125 0.625,-0.265625 1,0.109375 1.546875,0.109375 2.5625,0.109375 3.125,-1.34375 3.125,-1.421875 3.125,-1.53125 3.046875,-1.53125 3.015625,-1.53125 2.921875,-1.53125 2.90625,-1.5 2.859375,-1.390625 2.4375,-0.34375 1.90625,-0.109375 1.5625,-0.109375 c -0.203125,0 -0.3125,-0.125 -0.3125,-0.453125 0,-0.25 0.03125,-0.3125 0.0625,-0.484375 z m 0,0"
               id="id-bd45c2de-8d65-41d7-9fd8-2a55bea0feda" />
          </g>
        </g>
        <g
           style="fill:#000000;fill-opacity:1"
           id="id-3af1cf26-a9c9-4953-81dc-8968ca70f207">
          <g
             transform="translate(152.31,136.259)"
             id="g2784">
            <path
               style="stroke:none"
               d="m 2.328125,-4.4375 c 0,-0.1875 0,-0.1875 -0.203125,-0.1875 -0.453125,0.4375 -1.078125,0.4375 -1.359375,0.4375 v 0.25 c 0.15625,0 0.625,0 1,-0.1875 v 3.546875 c 0,0.234375 0,0.328125 -0.6875,0.328125 H 0.8125 V 0 c 0.125,0 0.984375,-0.03125 1.234375,-0.03125 0.21875,0 1.09375,0.03125 1.25,0.03125 V -0.25 H 3.03125 c -0.703125,0 -0.703125,-0.09375 -0.703125,-0.328125 z m 0,0"
               id="id-009f4aa0-6c75-481d-9282-91caacafc14d" />
          </g>
        </g>
      </g>
    </g>
    <g
       transform="matrix(0.352778,0,0,0.352778,41.681147,20.3397)"
       ns2:version="1.1.0"
       ns2:texconverter="pdflatex"
       ns2:pdfconverter="inkscape"
       ns2:text="$t_2$"
       ns2:preamble="/home/danielsank/.config/inkscape/extensions/textext/default_packages.tex"
       ns2:scale="1.0"
       ns2:alignment="middle center"
       ns2:jacobian_sqrt="0.352778"
       id="g2967">
      <defs
         id="id-8f8e776b-7ac0-47a8-bbe2-479ce86ebf5d">
        <g
           id="id-31165a0a-bb33-45c5-a0af-12b4c7f22940">
          <symbol
             overflow="visible"
             id="id-0d9a8cb2-6c3a-41b5-8a94-88005bd0ffa6">
            <path
               style="stroke:none"
               d=""
               id="id-b9bc79ee-0672-4e89-8687-035a0f602aff" />
          </symbol>
          <symbol
             overflow="visible"
             id="id-984dca93-3c04-4be5-ba87-8ae2b679a438">
            <path
               style="stroke:none"
               d="m 2.046875,-3.984375 h 0.9375 c 0.203125,0 0.3125,0 0.3125,-0.203125 0,-0.109375 -0.109375,-0.109375 -0.28125,-0.109375 h -0.875 C 2.5,-5.71875 2.546875,-5.90625 2.546875,-5.96875 c 0,-0.171875 -0.125,-0.265625 -0.296875,-0.265625 -0.03125,0 -0.3125,0 -0.390625,0.359375 L 1.46875,-4.296875 h -0.9375 c -0.203125,0 -0.296875,0 -0.296875,0.1875 0,0.125 0.078125,0.125 0.28125,0.125 h 0.875 C 0.671875,-1.15625 0.625,-0.984375 0.625,-0.8125 0.625,-0.265625 1,0.109375 1.546875,0.109375 2.5625,0.109375 3.125,-1.34375 3.125,-1.421875 3.125,-1.53125 3.046875,-1.53125 3.015625,-1.53125 2.921875,-1.53125 2.90625,-1.5 2.859375,-1.390625 2.4375,-0.34375 1.90625,-0.109375 1.5625,-0.109375 c -0.203125,0 -0.3125,-0.125 -0.3125,-0.453125 0,-0.25 0.03125,-0.3125 0.0625,-0.484375 z m 0,0"
               id="id-fcb1a905-b667-446b-90f9-310c7e637e16" />
          </symbol>
          <symbol
             overflow="visible"
             id="id-e0b75586-2cd1-4096-afe1-52cb61a1e05f">
            <path
               style="stroke:none"
               d=""
               id="id-c8c70472-ebc1-4bca-b14d-3afc73506fa8" />
          </symbol>
          <symbol
             overflow="visible"
             id="id-4287f035-23f7-4944-acfa-90bbd335445c">
            <path
               style="stroke:none"
               d="M 3.515625,-1.265625 H 3.28125 c -0.015625,0.15625 -0.09375,0.5625 -0.1875,0.625 C 3.046875,-0.59375 2.515625,-0.59375 2.40625,-0.59375 H 1.125 c 0.734375,-0.640625 0.984375,-0.84375 1.390625,-1.171875 0.515625,-0.40625 1,-0.84375 1,-1.5 0,-0.84375 -0.734375,-1.359375 -1.625,-1.359375 -0.859375,0 -1.453125,0.609375 -1.453125,1.25 0,0.34375 0.296875,0.390625 0.375,0.390625 0.15625,0 0.359375,-0.125 0.359375,-0.375 0,-0.125 -0.046875,-0.375 -0.40625,-0.375 C 0.984375,-4.21875 1.453125,-4.375 1.78125,-4.375 c 0.703125,0 1.0625,0.546875 1.0625,1.109375 0,0.609375 -0.4375,1.078125 -0.65625,1.328125 L 0.515625,-0.265625 C 0.4375,-0.203125 0.4375,-0.1875 0.4375,0 h 2.875 z m 0,0"
               id="id-0e307eb4-088d-4847-bef8-d1c9a6f061dc" />
          </symbol>
        </g>
      </defs>
      <g
         id="id-d5ca04ba-40e7-4526-9faf-406cef5dd0d6"
         transform="translate(-148.946,-128.531)">
        <g
           style="fill:#000000;fill-opacity:1"
           id="id-78446f98-f6f5-4d7c-ac88-c3bbd4983c69">
          <g
             transform="translate(148.712,134.765)"
             id="g2959">
            <path
               style="stroke:none"
               d="m 2.046875,-3.984375 h 0.9375 c 0.203125,0 0.3125,0 0.3125,-0.203125 0,-0.109375 -0.109375,-0.109375 -0.28125,-0.109375 h -0.875 C 2.5,-5.71875 2.546875,-5.90625 2.546875,-5.96875 c 0,-0.171875 -0.125,-0.265625 -0.296875,-0.265625 -0.03125,0 -0.3125,0 -0.390625,0.359375 L 1.46875,-4.296875 h -0.9375 c -0.203125,0 -0.296875,0 -0.296875,0.1875 0,0.125 0.078125,0.125 0.28125,0.125 h 0.875 C 0.671875,-1.15625 0.625,-0.984375 0.625,-0.8125 0.625,-0.265625 1,0.109375 1.546875,0.109375 2.5625,0.109375 3.125,-1.34375 3.125,-1.421875 3.125,-1.53125 3.046875,-1.53125 3.015625,-1.53125 2.921875,-1.53125 2.90625,-1.5 2.859375,-1.390625 2.4375,-0.34375 1.90625,-0.109375 1.5625,-0.109375 c -0.203125,0 -0.3125,-0.125 -0.3125,-0.453125 0,-0.25 0.03125,-0.3125 0.0625,-0.484375 z m 0,0"
               id="id-9536f72d-ce49-4364-a9a0-13c308bcac76" />
          </g>
        </g>
        <g
           style="fill:#000000;fill-opacity:1"
           id="id-1297fc0d-6639-402d-b190-38cb5e6a21f8">
          <g
             transform="translate(152.31,136.259)"
             id="g2963">
            <path
               style="stroke:none"
               d="M 3.515625,-1.265625 H 3.28125 c -0.015625,0.15625 -0.09375,0.5625 -0.1875,0.625 C 3.046875,-0.59375 2.515625,-0.59375 2.40625,-0.59375 H 1.125 c 0.734375,-0.640625 0.984375,-0.84375 1.390625,-1.171875 0.515625,-0.40625 1,-0.84375 1,-1.5 0,-0.84375 -0.734375,-1.359375 -1.625,-1.359375 -0.859375,0 -1.453125,0.609375 -1.453125,1.25 0,0.34375 0.296875,0.390625 0.375,0.390625 0.15625,0 0.359375,-0.125 0.359375,-0.375 0,-0.125 -0.046875,-0.375 -0.40625,-0.375 C 0.984375,-4.21875 1.453125,-4.375 1.78125,-4.375 c 0.703125,0 1.0625,0.546875 1.0625,1.109375 0,0.609375 -0.4375,1.078125 -0.65625,1.328125 L 0.515625,-0.265625 C 0.4375,-0.203125 0.4375,-0.1875 0.4375,0 h 2.875 z m 0,0"
               id="id-efa72f79-e941-4c0d-9bd2-ac7519f81fcc" />
          </g>
        </g>
      </g>
    </g>
    <g
       id="g3137"
       transform="translate(-0.07012077,17.111405)">
      <path
         style="fill:none;stroke:#000000;stroke-width:0.529167;stroke-linecap:round;stroke-linejoin:miter;stroke-miterlimit:4;stroke-dasharray:2.11667, 2.11667;stroke-dashoffset:0;stroke-opacity:1"
         d="M 11.230958,68.727031 70.016846,9.9411422"
         id="path835-1" />
      <path
         style="fill:none;stroke:#000000;stroke-width:0.529167;stroke-linecap:round;stroke-linejoin:miter;stroke-miterlimit:4;stroke-dasharray:2.11667, 2.11667;stroke-dashoffset:0;stroke-opacity:1"
         d="M 70.016846,68.727032 11.230956,9.9411422"
         id="path835-3-2" />
    </g>
    <g
       transform="matrix(0.352778,0,0,0.352778,69.696979,30.767605)"
       ns2:version="1.1.0"
       ns2:texconverter="pdflatex"
       ns2:pdfconverter="inkscape"
       ns2:text="$q$"
       ns2:preamble="/home/danielsank/.config/inkscape/extensions/textext/default_packages.tex"
       ns2:scale="1.0"
       ns2:alignment="middle center"
       ns2:jacobian_sqrt="0.352778"
       id="g3214">
      <defs
         id="id-c3ed4c15-9a1e-4e12-a878-915dcd57002b">
        <g
           id="id-c425991d-1e24-4901-94b4-946a50113519">
          <symbol
             overflow="visible"
             id="id-46e1bc14-be24-4adc-9473-c2876857f7d3">
            <path
               style="stroke:none"
               d=""
               id="id-160cb615-ed33-4c4a-9d5c-bb4b3d1aee91" />
          </symbol>
          <symbol
             overflow="visible"
             id="id-07bcc403-167b-45c8-badf-73b662f6dd97">
            <path
               style="stroke:none"
               d="m 4.5,-4.296875 c 0,-0.046875 -0.03125,-0.09375 -0.09375,-0.09375 -0.109375,0 -0.515625,0.390625 -0.671875,0.6875 C 3.515625,-4.25 3.125,-4.40625 2.796875,-4.40625 c -1.171875,0 -2.390625,1.46875 -2.390625,2.921875 0,0.96875 0.578125,1.59375 1.3125,1.59375 0.421875,0 0.8125,-0.234375 1.171875,-0.59375 -0.09375,0.34375 -0.421875,1.6875 -0.453125,1.78125 -0.078125,0.28125 -0.15625,0.3125 -0.71875,0.328125 -0.125,0 -0.21875,0 -0.21875,0.203125 0,0 0,0.109375 0.125,0.109375 0.3125,0 0.671875,-0.03125 1,-0.03125 0.328125,0 0.6875,0.03125 1.03125,0.03125 0.046875,0 0.171875,0 0.171875,-0.203125 C 3.828125,1.625 3.734375,1.625 3.5625,1.625 3.09375,1.625 3.09375,1.5625 3.09375,1.46875 3.09375,1.390625 3.109375,1.328125 3.125,1.25 Z m -2.75,4.1875 c -0.609375,0 -0.640625,-0.765625 -0.640625,-0.9375 0,-0.484375 0.28125,-1.5625 0.453125,-1.984375 0.3125,-0.734375 0.828125,-1.15625 1.234375,-1.15625 0.65625,0 0.796875,0.8125 0.796875,0.875 0,0.0625 -0.546875,2.25 -0.578125,2.28125 C 2.859375,-0.75 2.296875,-0.109375 1.75,-0.109375 Z m 0,0"
               id="id-bf8639ff-636c-49ee-b2d6-09002a3ada02" />
          </symbol>
        </g>
      </defs>
      <g
         id="id-a914683d-fb93-4ea2-a87d-1c556ef82286"
         transform="translate(-149.118,-130.359)">
        <g
           style="fill:#000000;fill-opacity:1"
           id="id-7e92737a-b72d-4d62-bc12-a7ec20ade313">
          <g
             transform="translate(148.712,134.765)"
             id="g3210">
            <path
               style="stroke:none"
               d="m 4.5,-4.296875 c 0,-0.046875 -0.03125,-0.09375 -0.09375,-0.09375 -0.109375,0 -0.515625,0.390625 -0.671875,0.6875 C 3.515625,-4.25 3.125,-4.40625 2.796875,-4.40625 c -1.171875,0 -2.390625,1.46875 -2.390625,2.921875 0,0.96875 0.578125,1.59375 1.3125,1.59375 0.421875,0 0.8125,-0.234375 1.171875,-0.59375 -0.09375,0.34375 -0.421875,1.6875 -0.453125,1.78125 -0.078125,0.28125 -0.15625,0.3125 -0.71875,0.328125 -0.125,0 -0.21875,0 -0.21875,0.203125 0,0 0,0.109375 0.125,0.109375 0.3125,0 0.671875,-0.03125 1,-0.03125 0.328125,0 0.6875,0.03125 1.03125,0.03125 0.046875,0 0.171875,0 0.171875,-0.203125 C 3.828125,1.625 3.734375,1.625 3.5625,1.625 3.09375,1.625 3.09375,1.5625 3.09375,1.46875 3.09375,1.390625 3.109375,1.328125 3.125,1.25 Z m -2.75,4.1875 c -0.609375,0 -0.640625,-0.765625 -0.640625,-0.9375 0,-0.484375 0.28125,-1.5625 0.453125,-1.984375 0.3125,-0.734375 0.828125,-1.15625 1.234375,-1.15625 0.65625,0 0.796875,0.8125 0.796875,0.875 0,0.0625 -0.546875,2.25 -0.578125,2.28125 C 2.859375,-0.75 2.296875,-0.109375 1.75,-0.109375 Z m 0,0"
               id="id-1c3f108a-0ebd-42f6-b20a-96cbc5e68b29" />
          </g>
        </g>
      </g>
    </g>
    <g
       transform="matrix(0.352778,0,0,0.352778,13.399079,24.693385)"
       ns2:version="1.1.0"
       ns2:texconverter="pdflatex"
       ns2:pdfconverter="inkscape"
       ns2:text="$p$"
       ns2:preamble="/home/danielsank/.config/inkscape/extensions/textext/default_packages.tex"
       ns2:scale="1.0"
       ns2:alignment="middle center"
       ns2:jacobian_sqrt="0.352778"
       id="g3390">
      <defs
         id="id-bbf72806-06b3-4df9-8fbf-3070eb585992">
        <g
           id="id-7d038495-409d-4b31-aaad-7693db654868">
          <symbol
             overflow="visible"
             id="id-8cc4193a-d4e4-4c3a-ae3d-8c60344a6fbc">
            <path
               style="stroke:none"
               d=""
               id="id-c98ea5a8-13ff-4aba-8e1e-8bc30e0b70f2" />
          </symbol>
          <symbol
             overflow="visible"
             id="id-c8c56399-e2f1-4b20-973c-ba778816c1d4">
            <path
               style="stroke:none"
               d="M 0.453125,1.21875 C 0.375,1.5625 0.34375,1.625 -0.09375,1.625 c -0.109375,0 -0.21875,0 -0.21875,0.1875 0,0.078125 0.046875,0.125 0.125,0.125 0.265625,0 0.5625,-0.03125 0.828125,-0.03125 0.34375,0 0.671875,0.03125 1,0.03125 0.046875,0 0.171875,0 0.171875,-0.203125 C 1.8125,1.625 1.71875,1.625 1.578125,1.625 c -0.5,0 -0.5,-0.0625 -0.5,-0.15625 0,-0.125 0.421875,-1.75 0.484375,-2 0.125,0.296875 0.40625,0.640625 0.921875,0.640625 1.15625,0 2.40625,-1.453125 2.40625,-2.921875 0,-0.9375 -0.578125,-1.59375 -1.328125,-1.59375 -0.5,0 -0.984375,0.359375 -1.3125,0.75 -0.09375,-0.546875 -0.53125,-0.75 -0.890625,-0.75 -0.46875,0 -0.65625,0.390625 -0.734375,0.5625 C 0.4375,-3.5 0.3125,-2.90625 0.3125,-2.875 c 0,0.109375 0.09375,0.109375 0.109375,0.109375 0.109375,0 0.109375,-0.015625 0.171875,-0.234375 0.171875,-0.703125 0.375,-1.1875 0.734375,-1.1875 0.171875,0 0.3125,0.078125 0.3125,0.453125 0,0.234375 -0.03125,0.34375 -0.078125,0.515625 z m 1.75,-4.328125 C 2.265625,-3.375 2.546875,-3.65625 2.71875,-3.8125 c 0.359375,-0.296875 0.640625,-0.375 0.8125,-0.375 0.390625,0 0.640625,0.34375 0.640625,0.9375 0,0.59375 -0.328125,1.734375 -0.515625,2.109375 -0.34375,0.703125 -0.8125,1.03125 -1.1875,1.03125 C 1.8125,-0.109375 1.6875,-0.9375 1.6875,-1 c 0,-0.015625 0,-0.03125 0.03125,-0.15625 z m 0,0"
               id="id-fffa881c-8a73-4fef-bd6a-3cf89a61fdf5" />
          </symbol>
        </g>
      </defs>
      <g
         id="id-d464ee2f-b4ca-4e0c-ae58-4aecdeac25eb"
         transform="translate(-148.4,-130.359)">
        <g
           style="fill:#000000;fill-opacity:1"
           id="id-818243cb-1873-458e-af81-fda5c17bd745">
          <g
             transform="translate(148.712,134.765)"
             id="g3386">
            <path
               style="stroke:none"
               d="M 0.453125,1.21875 C 0.375,1.5625 0.34375,1.625 -0.09375,1.625 c -0.109375,0 -0.21875,0 -0.21875,0.1875 0,0.078125 0.046875,0.125 0.125,0.125 0.265625,0 0.5625,-0.03125 0.828125,-0.03125 0.34375,0 0.671875,0.03125 1,0.03125 0.046875,0 0.171875,0 0.171875,-0.203125 C 1.8125,1.625 1.71875,1.625 1.578125,1.625 c -0.5,0 -0.5,-0.0625 -0.5,-0.15625 0,-0.125 0.421875,-1.75 0.484375,-2 0.125,0.296875 0.40625,0.640625 0.921875,0.640625 1.15625,0 2.40625,-1.453125 2.40625,-2.921875 0,-0.9375 -0.578125,-1.59375 -1.328125,-1.59375 -0.5,0 -0.984375,0.359375 -1.3125,0.75 -0.09375,-0.546875 -0.53125,-0.75 -0.890625,-0.75 -0.46875,0 -0.65625,0.390625 -0.734375,0.5625 C 0.4375,-3.5 0.3125,-2.90625 0.3125,-2.875 c 0,0.109375 0.09375,0.109375 0.109375,0.109375 0.109375,0 0.109375,-0.015625 0.171875,-0.234375 0.171875,-0.703125 0.375,-1.1875 0.734375,-1.1875 0.171875,0 0.3125,0.078125 0.3125,0.453125 0,0.234375 -0.03125,0.34375 -0.078125,0.515625 z m 1.75,-4.328125 C 2.265625,-3.375 2.546875,-3.65625 2.71875,-3.8125 c 0.359375,-0.296875 0.640625,-0.375 0.8125,-0.375 0.390625,0 0.640625,0.34375 0.640625,0.9375 0,0.59375 -0.328125,1.734375 -0.515625,2.109375 -0.34375,0.703125 -0.8125,1.03125 -1.1875,1.03125 C 1.8125,-0.109375 1.6875,-0.9375 1.6875,-1 c 0,-0.015625 0,-0.03125 0.03125,-0.15625 z m 0,0"
               id="id-e4bd0211-e881-48ac-8de8-bd30b3dd6b5e" />
          </g>
        </g>
      </g>
    </g>
    <path
       sodipodi:type="star"
       style="fill:#de0084;fill-opacity:0.31133416;stroke:#de0084;stroke-width:0.473949;stroke-linecap:round;stroke-miterlimit:4;stroke-dasharray:none;stroke-dashoffset:0;stroke-opacity:1"
       id="path3425-1"
       sodipodi:sides="3"
       sodipodi:cx="40.660385"
       sodipodi:cy="19.459877"
       sodipodi:r1="19.566975"
       sodipodi:r2="9.7834873"
       sodipodi:arg1="1.5707963"
       sodipodi:arg2="2.6179939"
       inkscape:flatsided="true"
       inkscape:rounded="0"
       inkscape:randomized="0"
       inkscape:transform-center-y="-4.1224248"
       transform="matrix(1.4792176,0,0,-0.84273124,-19.597344,39.554571)"
       inkscape:transform-center-x="-3.5934047e-06"
       d="M 40.660386,39.026852 23.714888,9.6763901 l 33.890994,-9e-7 z" />
  </g>
</svg>
